<svg id="visual" viewBox="0 0 960 540" width="3840" height="2160" xmlns="http://www.w3.org/2000/svg" xmlns:xlink="http://www.w3.org/1999/xlink" version="1.1"><path d="M0 23L8.8 23C17.7 23 35.3 23 53.2 28.3C71 33.7 89 44.3 106.8 48.8C124.7 53.3 142.3 51.7 160 48C177.7 44.3 195.3 38.7 213.2 37.7C231 36.7 249 40.3 266.8 35.8C284.7 31.3 302.3 18.7 320 22.3C337.7 26 355.3 46 373.2 54.2C391 62.3 409 58.7 426.8 51.5C444.7 44.3 462.3 33.7 480 37.3C497.7 41 515.3 59 533.2 57.2C551 55.3 569 33.7 586.8 25.5C604.7 17.3 622.3 22.7 640 27.2C657.7 31.7 675.3 35.3 693.2 31.7C711 28 729 17 746.8 11.5C764.7 6 782.3 6 800 7C817.7 8 835.3 10 853.2 15.5C871 21 889 30 906.8 30C924.7 30 942.3 21 951.2 16.5L960 12L960 0L951.2 0C942.3 0 924.7 0 906.8 0C889 0 871 0 853.2 0C835.3 0 817.7 0 800 0C782.3 0 764.7 0 746.8 0C729 0 711 0 693.2 0C675.3 0 657.7 0 640 0C622.3 0 604.7 0 586.8 0C569 0 551 0 533.2 0C515.3 0 497.7 0 480 0C462.3 0 444.7 0 426.8 0C409 0 391 0 373.2 0C355.3 0 337.7 0 320 0C302.3 0 284.7 0 266.8 0C249 0 231 0 213.2 0C195.3 0 177.7 0 160 0C142.3 0 124.7 0 106.8 0C89 0 71 0 53.2 0C35.3 0 17.7 0 8.8 0L0 0Z" fill="#fdfdfd"></path><path d="M0 39L8.8 39C17.7 39 35.3 39 53.2 46.2C71 53.3 89 67.7 106.8 78.5C124.7 89.3 142.3 96.7 160 89.5C177.7 82.3 195.3 60.7 213.2 55.2C231 49.7 249 60.3 266.8 63C284.7 65.7 302.3 60.3 320 62.2C337.7 64 355.3 73 373.2 75.7C391 78.3 409 74.7 426.8 66.5C444.7 58.3 462.3 45.7 480 50.2C497.7 54.7 515.3 76.3 533.2 80C551 83.7 569 69.3 586.8 60.3C604.7 51.3 622.3 47.7 640 53C657.7 58.3 675.3 72.7 693.2 70C711 67.3 729 47.7 746.8 37.8C764.7 28 782.3 28 800 26.2C817.7 24.3 835.3 20.7 853.2 26C871 31.3 889 45.7 906.8 47.5C924.7 49.3 942.3 38.7 951.2 33.3L960 28L960 10L951.2 14.5C942.3 19 924.7 28 906.8 28C889 28 871 19 853.2 13.5C835.3 8 817.7 6 800 5C782.3 4 764.7 4 746.8 9.5C729 15 711 26 693.2 29.7C675.3 33.3 657.7 29.7 640 25.2C622.3 20.7 604.7 15.3 586.8 23.5C569 31.7 551 53.3 533.2 55.2C515.3 57 497.7 39 480 35.3C462.3 31.7 444.7 42.3 426.8 49.5C409 56.7 391 60.3 373.2 52.2C355.3 44 337.7 24 320 20.3C302.3 16.7 284.7 29.3 266.8 33.8C249 38.3 231 34.7 213.2 35.7C195.3 36.7 177.7 42.3 160 46C142.3 49.7 124.7 51.3 106.8 46.8C89 42.3 71 31.7 53.2 26.3C35.3 21 17.7 21 8.8 21L0 21Z" fill="#fdfdfd"></path><path d="M0 82L8.8 84.7C17.7 87.3 35.3 92.7 53.2 98C71 103.3 89 108.7 106.8 115.8C124.7 123 142.3 132 160 136.5C177.7 141 195.3 141 213.2 144.7C231 148.3 249 155.7 266.8 153C284.7 150.3 302.3 137.7 320 131.3C337.7 125 355.3 125 373.2 118.7C391 112.3 409 99.7 426.8 93.3C444.7 87 462.3 87 480 95.2C497.7 103.3 515.3 119.7 533.2 125.2C551 130.7 569 125.3 586.8 114.5C604.7 103.7 622.3 87.3 640 99C657.7 110.7 675.3 150.3 693.2 159.3C711 168.3 729 146.7 746.8 135.8C764.7 125 782.3 125 800 118.7C817.7 112.3 835.3 99.7 853.2 101.5C871 103.3 889 119.7 906.8 120.7C924.7 121.7 942.3 107.3 951.2 100.2L960 93L960 26L951.2 31.3C942.3 36.7 924.7 47.3 906.8 45.5C889 43.7 871 29.3 853.2 24C835.3 18.7 817.7 22.3 800 24.2C782.3 26 764.7 26 746.8 35.8C729 45.7 711 65.3 693.2 68C675.3 70.7 657.7 56.3 640 51C622.3 45.7 604.7 49.3 586.8 58.3C569 67.3 551 81.7 533.2 78C515.3 74.3 497.7 52.7 480 48.2C462.3 43.7 444.7 56.3 426.8 64.5C409 72.7 391 76.3 373.2 73.7C355.3 71 337.7 62 320 60.2C302.3 58.3 284.7 63.7 266.8 61C249 58.3 231 47.7 213.2 53.2C195.3 58.7 177.7 80.3 160 87.5C142.3 94.7 124.7 87.3 106.8 76.5C89 65.7 71 51.3 53.2 44.2C35.3 37 17.7 37 8.8 37L0 37Z" fill="#fdfdfd"></path><path d="M0 131L8.8 127.3C17.7 123.7 35.3 116.3 53.2 120.8C71 125.3 89 141.7 106.8 153.3C124.7 165 142.3 172 160 176.5C177.7 181 195.3 183 213.2 184.8C231 186.7 249 188.3 266.8 182.8C284.7 177.3 302.3 164.7 320 156.5C337.7 148.3 355.3 144.7 373.2 134.8C391 125 409 109 426.8 107.3C444.7 105.7 462.3 118.3 480 127.3C497.7 136.3 515.3 141.7 533.2 147C551 152.3 569 157.7 586.8 148.7C604.7 139.7 622.3 116.3 640 121.7C657.7 127 675.3 161 693.2 171.8C711 182.7 729 170.3 746.8 163.2C764.7 156 782.3 154 800 145C817.7 136 835.3 120 853.2 121.8C871 123.7 889 143.3 906.8 146.8C924.7 150.3 942.3 137.7 951.2 131.3L960 125L960 91L951.2 98.2C942.3 105.3 924.7 119.7 906.8 118.7C889 117.7 871 101.3 853.2 99.5C835.3 97.7 817.7 110.3 800 116.7C782.3 123 764.7 123 746.8 133.8C729 144.7 711 166.3 693.2 157.3C675.3 148.3 657.7 108.7 640 97C622.3 85.3 604.7 101.7 586.8 112.5C569 123.3 551 128.7 533.2 123.2C515.3 117.7 497.7 101.3 480 93.2C462.3 85 444.7 85 426.8 91.3C409 97.7 391 110.3 373.2 116.7C355.3 123 337.7 123 320 129.3C302.3 135.7 284.7 148.3 266.8 151C249 153.7 231 146.3 213.2 142.7C195.3 139 177.7 139 160 134.5C142.3 130 124.7 121 106.8 113.8C89 106.7 71 101.3 53.2 96C35.3 90.7 17.7 85.3 8.8 82.7L0 80Z" fill="#fcfcfc"></path><path d="M0 266L8.8 257.8C17.7 249.7 35.3 233.3 53.2 222.5C71 211.7 89 206.3 106.8 227C124.7 247.7 142.3 294.3 160 296.2C177.7 298 195.3 255 213.2 247.8C231 240.7 249 269.3 266.8 272C284.7 274.7 302.3 251.3 320 234.2C337.7 217 355.3 206 373.2 212.3C391 218.7 409 242.3 426.8 238.8C444.7 235.3 462.3 204.7 480 209.2C497.7 213.7 515.3 253.3 533.2 273.2C551 293 569 293 586.8 271.3C604.7 249.7 622.3 206.3 640 208C657.7 209.7 675.3 256.3 693.2 273.5C711 290.7 729 278.3 746.8 255.8C764.7 233.3 782.3 200.7 800 185.3C817.7 170 835.3 172 853.2 191.8C871 211.7 889 249.3 906.8 246.7C924.7 244 942.3 201 951.2 179.5L960 158L960 123L951.2 129.3C942.3 135.7 924.7 148.3 906.8 144.8C889 141.3 871 121.7 853.2 119.8C835.3 118 817.7 134 800 143C782.3 152 764.7 154 746.8 161.2C729 168.3 711 180.7 693.2 169.8C675.3 159 657.7 125 640 119.7C622.3 114.3 604.7 137.7 586.8 146.7C569 155.7 551 150.3 533.2 145C515.3 139.7 497.7 134.3 480 125.3C462.3 116.3 444.7 103.7 426.8 105.3C409 107 391 123 373.2 132.8C355.3 142.7 337.7 146.3 320 154.5C302.3 162.7 284.7 175.3 266.8 180.8C249 186.3 231 184.7 213.2 182.8C195.3 181 177.7 179 160 174.5C142.3 170 124.7 163 106.8 151.3C89 139.7 71 123.3 53.2 118.8C35.3 114.3 17.7 121.7 8.8 125.3L0 129Z" fill="#fcfcfc"></path><path d="M0 309L8.8 303.5C17.7 298 35.3 287 53.2 274.3C71 261.7 89 247.3 106.8 260C124.7 272.7 142.3 312.3 160 315C177.7 317.7 195.3 283.3 213.2 278C231 272.7 249 296.3 266.8 304.5C284.7 312.7 302.3 305.3 320 286.3C337.7 267.3 355.3 236.7 373.2 237.5C391 238.3 409 270.7 426.8 277C444.7 283.3 462.3 263.7 480 271C497.7 278.3 515.3 312.7 533.2 321.7C551 330.7 569 314.3 586.8 290C604.7 265.7 622.3 233.3 640 243.2C657.7 253 675.3 305 693.2 327.5C711 350 729 343 746.8 317.8C764.7 292.7 782.3 249.3 800 225C817.7 200.7 835.3 195.3 853.2 209.8C871 224.3 889 258.7 906.8 263.2C924.7 267.7 942.3 242.3 951.2 229.7L960 217L960 156L951.2 177.5C942.3 199 924.7 242 906.8 244.7C889 247.3 871 209.7 853.2 189.8C835.3 170 817.7 168 800 183.3C782.3 198.7 764.7 231.3 746.8 253.8C729 276.3 711 288.7 693.2 271.5C675.3 254.3 657.7 207.7 640 206C622.3 204.3 604.7 247.7 586.8 269.3C569 291 551 291 533.2 271.2C515.3 251.3 497.7 211.7 480 207.2C462.3 202.7 444.7 233.3 426.8 236.8C409 240.3 391 216.7 373.2 210.3C355.3 204 337.7 215 320 232.2C302.3 249.3 284.7 272.7 266.8 270C249 267.3 231 238.7 213.2 245.8C195.3 253 177.7 296 160 294.2C142.3 292.3 124.7 245.7 106.8 225C89 204.3 71 209.7 53.2 220.5C35.3 231.3 17.7 247.7 8.8 255.8L0 264Z" fill="#fafafa"></path><path d="M0 390L8.8 382.8C17.7 375.7 35.3 361.3 53.2 342.3C71 323.3 89 299.7 106.8 309.5C124.7 319.3 142.3 362.7 160 372.7C177.7 382.7 195.3 359.3 213.2 363.8C231 368.3 249 400.7 266.8 403.3C284.7 406 302.3 379 320 356.5C337.7 334 355.3 316 373.2 332.2C391 348.3 409 398.7 426.8 405.8C444.7 413 462.3 377 480 373.5C497.7 370 515.3 399 533.2 394.5C551 390 569 352 586.8 327.7C604.7 303.3 622.3 292.7 640 317.8C657.7 343 675.3 404 693.2 423.8C711 443.7 729 422.3 746.8 393.7C764.7 365 782.3 329 800 300.2C817.7 271.3 835.3 249.7 853.2 268.5C871 287.3 889 346.7 906.8 359.2C924.7 371.7 942.3 337.3 951.2 320.2L960 303L960 215L951.2 227.7C942.3 240.3 924.7 265.7 906.8 261.2C889 256.7 871 222.3 853.2 207.8C835.3 193.3 817.7 198.7 800 223C782.3 247.3 764.7 290.7 746.8 315.8C729 341 711 348 693.2 325.5C675.3 303 657.7 251 640 241.2C622.3 231.3 604.7 263.7 586.8 288C569 312.3 551 328.7 533.2 319.7C515.3 310.7 497.7 276.3 480 269C462.3 261.7 444.7 281.3 426.8 275C409 268.7 391 236.3 373.2 235.5C355.3 234.7 337.7 265.3 320 284.3C302.3 303.3 284.7 310.7 266.8 302.5C249 294.3 231 270.7 213.2 276C195.3 281.3 177.7 315.7 160 313C142.3 310.3 124.7 270.7 106.8 258C89 245.3 71 259.7 53.2 272.3C35.3 285 17.7 296 8.8 301.5L0 307Z" fill="#f6f6f6"></path><path d="M0 503L8.8 500.3C17.7 497.7 35.3 492.3 53.2 495C71 497.7 89 508.3 106.8 503C124.7 497.7 142.3 476.3 160 471C177.7 465.7 195.3 476.3 213.2 481.7C231 487 249 487 266.8 478.8C284.7 470.7 302.3 454.3 320 447.2C337.7 440 355.3 442 373.2 449.3C391 456.7 409 469.3 426.8 476.5C444.7 483.7 462.3 485.3 480 486.2C497.7 487 515.3 487 533.2 487C551 487 569 487 586.8 486.2C604.7 485.3 622.3 483.7 640 488.2C657.7 492.7 675.3 503.3 693.2 502.3C711 501.3 729 488.7 746.8 480.5C764.7 472.3 782.3 468.7 800 469.7C817.7 470.7 835.3 476.3 853.2 479.2C871 482 889 482 906.8 484.7C924.7 487.3 942.3 492.7 951.2 495.3L960 498L960 301L951.2 318.2C942.3 335.3 924.7 369.7 906.8 357.2C889 344.7 871 285.3 853.2 266.5C835.3 247.7 817.7 269.3 800 298.2C782.3 327 764.7 363 746.8 391.7C729 420.3 711 441.7 693.2 421.8C675.3 402 657.7 341 640 315.8C622.3 290.7 604.7 301.3 586.8 325.7C569 350 551 388 533.2 392.5C515.3 397 497.7 368 480 371.5C462.3 375 444.7 411 426.8 403.8C409 396.7 391 346.3 373.2 330.2C355.3 314 337.7 332 320 354.5C302.3 377 284.7 404 266.8 401.3C249 398.7 231 366.3 213.2 361.8C195.3 357.3 177.7 380.7 160 370.7C142.3 360.7 124.7 317.3 106.8 307.5C89 297.7 71 321.3 53.2 340.3C35.3 359.3 17.7 373.7 8.8 380.8L0 388Z" fill="#f3f3f3"></path><path d="M0 530L8.8 528.2C17.7 526.3 35.3 522.7 53.2 522.7C71 522.7 89 526.3 106.8 523.7C124.7 521 142.3 512 160 508.5C177.7 505 195.3 507 213.2 512.5C231 518 249 527 266.8 523.3C284.7 519.7 302.3 503.3 320 496C337.7 488.7 355.3 490.3 373.2 491.2C391 492 409 492 426.8 497.5C444.7 503 462.3 514 480 515C497.7 516 515.3 507 533.2 505.2C551 503.3 569 508.7 586.8 514C604.7 519.3 622.3 524.7 640 525.5C657.7 526.3 675.3 522.7 693.2 519.2C711 515.7 729 512.3 746.8 508.8C764.7 505.3 782.3 501.7 800 498.8C817.7 496 835.3 494 853.2 492.2C871 490.3 889 488.7 906.8 493.2C924.7 497.7 942.3 508.3 951.2 513.7L960 519L960 496L951.2 493.3C942.3 490.7 924.7 485.3 906.8 482.7C889 480 871 480 853.2 477.2C835.3 474.3 817.7 468.7 800 467.7C782.3 466.7 764.7 470.3 746.8 478.5C729 486.7 711 499.3 693.2 500.3C675.3 501.3 657.7 490.7 640 486.2C622.3 481.7 604.7 483.3 586.8 484.2C569 485 551 485 533.2 485C515.3 485 497.7 485 480 484.2C462.3 483.3 444.7 481.7 426.8 474.5C409 467.3 391 454.7 373.2 447.3C355.3 440 337.7 438 320 445.2C302.3 452.3 284.7 468.7 266.8 476.8C249 485 231 485 213.2 479.7C195.3 474.3 177.7 463.7 160 469C142.3 474.3 124.7 495.7 106.8 501C89 506.3 71 495.7 53.2 493C35.3 490.3 17.7 495.7 8.8 498.3L0 501Z" fill="#efefef"></path><path d="M0 541L8.8 541C17.7 541 35.3 541 53.2 541C71 541 89 541 106.8 541C124.7 541 142.3 541 160 541C177.7 541 195.3 541 213.2 541C231 541 249 541 266.8 541C284.7 541 302.3 541 320 541C337.7 541 355.3 541 373.2 541C391 541 409 541 426.8 541C444.7 541 462.3 541 480 541C497.7 541 515.3 541 533.2 541C551 541 569 541 586.8 541C604.7 541 622.3 541 640 541C657.7 541 675.3 541 693.2 541C711 541 729 541 746.8 541C764.7 541 782.3 541 800 541C817.7 541 835.3 541 853.2 541C871 541 889 541 906.8 541C924.7 541 942.3 541 951.2 541L960 541L960 517L951.2 511.7C942.3 506.3 924.7 495.7 906.8 491.2C889 486.7 871 488.3 853.2 490.2C835.3 492 817.7 494 800 496.8C782.3 499.7 764.7 503.3 746.8 506.8C729 510.3 711 513.7 693.2 517.2C675.3 520.7 657.7 524.3 640 523.5C622.3 522.7 604.7 517.3 586.8 512C569 506.7 551 501.3 533.2 503.2C515.3 505 497.7 514 480 513C462.3 512 444.7 501 426.8 495.5C409 490 391 490 373.2 489.2C355.3 488.3 337.7 486.7 320 494C302.3 501.3 284.7 517.7 266.8 521.3C249 525 231 516 213.2 510.5C195.3 505 177.7 503 160 506.5C142.3 510 124.7 519 106.8 521.7C89 524.3 71 520.7 53.2 520.7C35.3 520.7 17.7 524.3 8.8 526.2L0 528Z" fill="#ebebeb"></path></svg>